<mxfile host="app.diagrams.net" modified="2024-05-29T10:52:33.013Z" agent="Mozilla/5.0 (X11; Linux x86_64) AppleWebKit/537.36 (KHTML, like Gecko) Chrome/125.0.0.0 Safari/537.36" version="24.4.9" etag="Rqz2EfTuxHFhQWmDRP3q" type="github">
  <diagram name="Page-1" id="izJXgHiaTFt7Oh10J0kt">
    <mxGraphModel>
      <root>
        <mxCell id="0" />
        <mxCell id="1" parent="0" />
      </root>
    </mxGraphModel>
  </diagram>
</mxfile>
